<svg id="Warstwa_1" xmlns="http://www.w3.org/2000/svg" xmlns:xlink="http://www.w3.org/1999/xlink" viewBox="0 0 451.87 236.04"><defs><style>.cls-1{fill:url(#Gradient_bez_nazwy_8-14);}.cls-2{fill:url(#Gradient_bez_nazwy_8-4);}.cls-3{fill:url(#Gradient_bez_nazwy_6);}.cls-4{fill:url(#Gradient_bez_nazwy_8-11);}.cls-5{fill:url(#Gradient_bez_nazwy_8-8);}.cls-6{fill:url(#Gradient_bez_nazwy_8-2);}.cls-7{fill:url(#Gradient_bez_nazwy_8-12);}.cls-8{fill:url(#Gradient_bez_nazwy_8-15);}.cls-9{fill:url(#Gradient_bez_nazwy_8-10);}.cls-10{fill:url(#Gradient_bez_nazwy_8-3);}.cls-11{fill:url(#Gradient_bez_nazwy_8-5);}.cls-12{fill:url(#Gradient_bez_nazwy_8-7);}.cls-13{fill:url(#Gradient_bez_nazwy_8);}.cls-14{fill:url(#Gradient_bez_nazwy_8-6);}.cls-15{fill:url(#Gradient_bez_nazwy_8-13);}.cls-16{fill:url(#Gradient_bez_nazwy_8-16);}.cls-17{fill:url(#Gradient_bez_nazwy_8-9);}</style><linearGradient id="Gradient_bez_nazwy_6" x1="103.5" y1="164.48" x2="106.11" y2="61.58" gradientUnits="userSpaceOnUse"><stop offset="0" stop-color="#977a50"/><stop offset="1" stop-color="#e3c481"/></linearGradient><linearGradient id="Gradient_bez_nazwy_8" x1="160.77" y1="185.79" x2="162.51" y2="38.94" gradientUnits="userSpaceOnUse"><stop offset="0" stop-color="#977a50"/><stop offset="1" stop-color="#e3c481"/></linearGradient><linearGradient id="Gradient_bez_nazwy_8-2" x1="198.11" y1="186.24" x2="199.84" y2="39.38" xlink:href="#Gradient_bez_nazwy_8"/><linearGradient id="Gradient_bez_nazwy_8-3" x1="234.31" y1="186.66" x2="236.05" y2="39.81" xlink:href="#Gradient_bez_nazwy_8"/><linearGradient id="Gradient_bez_nazwy_8-4" x1="272.64" y1="187.12" x2="274.38" y2="40.27" xlink:href="#Gradient_bez_nazwy_8"/><linearGradient id="Gradient_bez_nazwy_8-5" x1="297.07" y1="187.41" x2="298.81" y2="40.56" xlink:href="#Gradient_bez_nazwy_8"/><linearGradient id="Gradient_bez_nazwy_8-6" x1="324.4" y1="187.73" x2="326.14" y2="40.88" xlink:href="#Gradient_bez_nazwy_8"/><linearGradient id="Gradient_bez_nazwy_8-7" x1="361.4" y1="188.17" x2="363.14" y2="41.32" xlink:href="#Gradient_bez_nazwy_8"/><linearGradient id="Gradient_bez_nazwy_8-8" x1="152.51" y1="195.68" x2="154.55" y2="23.08" xlink:href="#Gradient_bez_nazwy_8"/><linearGradient id="Gradient_bez_nazwy_8-9" x1="165.3" y1="195.83" x2="167.35" y2="23.23" xlink:href="#Gradient_bez_nazwy_8"/><linearGradient id="Gradient_bez_nazwy_8-10" x1="178.8" y1="195.99" x2="180.85" y2="23.39" xlink:href="#Gradient_bez_nazwy_8"/><linearGradient id="Gradient_bez_nazwy_8-11" x1="188.3" y1="196.1" x2="190.35" y2="23.5" xlink:href="#Gradient_bez_nazwy_8"/><linearGradient id="Gradient_bez_nazwy_8-12" x1="197.74" y1="196.21" x2="199.78" y2="23.62" xlink:href="#Gradient_bez_nazwy_8"/><linearGradient id="Gradient_bez_nazwy_8-13" x1="210.68" y1="196.37" x2="212.72" y2="23.77" xlink:href="#Gradient_bez_nazwy_8"/><linearGradient id="Gradient_bez_nazwy_8-14" x1="219.77" y1="196.47" x2="221.82" y2="23.88" xlink:href="#Gradient_bez_nazwy_8"/><linearGradient id="Gradient_bez_nazwy_8-15" x1="229.27" y1="196.59" x2="231.31" y2="23.99" xlink:href="#Gradient_bez_nazwy_8"/><linearGradient id="Gradient_bez_nazwy_8-16" x1="242.6" y1="196.74" x2="244.65" y2="24.15" xlink:href="#Gradient_bez_nazwy_8"/></defs><polygon class="cls-3" points="102.39 105.52 127.29 130.42 104.59 153.12 100.81 149.35 119.44 130.72 88.2 99.49 104.77 82.92 127.47 105.62 121.29 111.81 123.48 114 131.85 105.62 104.77 78.54 77.69 105.62 101.43 129.36 103.62 127.17 82.07 105.62 86.01 101.68 115.06 130.72 98.62 147.16 81.88 130.42 88.19 124.12 86 121.93 77.5 130.42 104.59 157.5 131.67 130.42 104.58 103.33 102.39 105.52"/><g><g><path class="cls-13" d="M174.87,102.38h-2.97v-1.03c0-.77-.66-1.43-1.43-1.43h-17.6c-.77,0-1.43,.66-1.43,1.43v5.9c0,.77,.66,1.39,1.43,1.39h17.6c2.46,0,4.4,1.98,4.4,4.4v5.9c0,2.46-1.94,4.4-4.4,4.4h-17.6c-2.46,0-4.4-1.94-4.4-4.4v-1.03h2.97v1.03c0,.77,.66,1.43,1.43,1.43h17.6c.77,0,1.43-.66,1.43-1.43v-5.9c0-.77-.66-1.39-1.43-1.39h-17.6c-2.46,0-4.4-1.98-4.4-4.4v-5.9c0-2.46,1.94-4.4,4.4-4.4h17.6c2.46,0,4.4,1.94,4.4,4.4v1.03Z"/><path class="cls-6" d="M211.56,96.95l-11.04,13.2,11.07,13.2h-3.85l-9.83-11.7h-8.51v11.7h-3.01v-26.4h3.01v11.7h8.51c3.19-3.81,6.64-7.88,9.83-11.7h3.81Z"/><path class="cls-10" d="M248.99,96.95l-12.14,16.46v9.94h-2.97v-9.94c-3.92-5.39-8.14-11.07-12.14-16.46h3.41l10.23,12.91c3.19-4.11,6.89-8.8,10.12-12.91h3.48Z"/><path class="cls-2" d="M260.35,96.91h2.97v23.46h23.43v2.97h-26.4v-26.43Z"/><path class="cls-11" d="M296.5,96.95h2.97v26.4h-2.97v-26.4Z"/><path class="cls-14" d="M335.55,96.95h2.97v26.4h-4.07l-19.36-23.02v23.02h-2.97v-26.4h4.07l19.36,23.03v-23.03Z"/><path class="cls-12" d="M374.37,99.92h-21.12v8.73h16.97v3.01h-16.97v8.73h21.12v2.97h-24.09v-26.4h24.09v2.97Z"/></g><g><path class="cls-5" d="M148.47,133.68h1.42v8.03h8.02v1.42h-9.44v-9.45Z"/><path class="cls-17" d="M169,133.69c.94,0,1.7,.76,1.7,1.7v6.03c0,.94-.76,1.7-1.7,1.7h-6.03c-.94,0-1.7-.76-1.7-1.7v-6.03c0-.94,.76-1.7,1.7-1.7h6.03Zm0,8.02c.16,0,.29-.13,.29-.29v-6.03c0-.16-.13-.29-.29-.29h-6.03c-.16,0-.29,.13-.29,.29v6.03c0,.16,.13,.29,.29,.29h6.03Z"/><path class="cls-9" d="M184.2,135.96h-1.42v-.56c0-.16-.13-.29-.29-.29h-6.03c-.16,0-.29,.13-.29,.29v6.03c0,.16,.13,.29,.29,.29h6.03c.16,0,.29-.13,.29-.29v-2.04h-2.23v-1.42h3.64v3.46c0,.94-.76,1.7-1.7,1.7h-6.03c-.94,0-1.7-.76-1.7-1.7v-6.03c0-.94,.76-1.7,1.7-1.7h6.03c.94,0,1.7,.76,1.7,1.7v.56Z"/><path class="cls-4" d="M188.28,133.69h1.42v9.44h-1.42v-9.44Z"/><path class="cls-7" d="M203.14,135.95h-1.42v-.55c0-.16-.13-.29-.29-.29h-6.03c-.16,0-.29,.13-.29,.29v2.02c0,.16,.13,.29,.29,.29h6.03c.94,0,1.7,.76,1.7,1.7v2.02c0,.94-.76,1.7-1.7,1.7h-6.03c-.94,0-1.7-.76-1.7-1.7v-.55h1.42v.55c0,.16,.13,.29,.29,.29h6.03c.16,0,.29-.13,.29-.29v-2.02c0-.16-.13-.29-.29-.29h-6.03c-.94,0-1.7-.76-1.7-1.7v-2.02c0-.94,.76-1.7,1.7-1.7h6.03c.94,0,1.7,.76,1.7,1.7v.55Z"/><path class="cls-15" d="M216.13,133.69v1.42h-4.01v8.02h-1.42v-8.02h-4.01v-1.42h9.44Z"/><path class="cls-1" d="M219.75,133.69h1.42v9.44h-1.42v-9.44Z"/><path class="cls-8" d="M226.95,135.11c-.16,0-.29,.13-.29,.29v6.03c0,.16,.13,.29,.29,.29h7.71v1.42h-7.71c-.94,0-1.7-.76-1.7-1.7v-6.03c0-.94,.76-1.7,1.7-1.7h7.71v1.42h-7.71Z"/><path class="cls-16" d="M248.01,135.95h-1.42v-.55c0-.16-.13-.29-.29-.29h-6.03c-.16,0-.29,.13-.29,.29v2.02c0,.16,.13,.29,.29,.29h6.03c.94,0,1.7,.76,1.7,1.7v2.02c0,.94-.76,1.7-1.7,1.7h-6.03c-.94,0-1.7-.76-1.7-1.7v-.55h1.42v.55c0,.16,.13,.29,.29,.29h6.03c.16,0,.29-.13,.29-.29v-2.02c0-.16-.13-.29-.29-.29h-6.03c-.94,0-1.7-.76-1.7-1.7v-2.02c0-.94,.76-1.7,1.7-1.7h6.03c.94,0,1.7,.76,1.7,1.7v.55Z"/></g></g></svg>