<svg id="Warstwa_1" xmlns="http://www.w3.org/2000/svg" viewBox="0 0 451.87 236.04"><defs><style>.cls-1{fill:#fff;}</style></defs><polygon class="cls-1" points="102.39 105.52 127.29 130.42 104.59 153.12 100.81 149.35 119.44 130.72 88.2 99.49 104.77 82.92 127.47 105.62 121.29 111.81 123.48 114 131.85 105.62 104.77 78.54 77.69 105.62 101.43 129.36 103.62 127.17 82.07 105.62 86.01 101.68 115.06 130.72 98.62 147.16 81.88 130.42 88.19 124.12 86 121.93 77.5 130.42 104.59 157.5 131.67 130.42 104.58 103.33 102.39 105.52"/><g><g><path class="cls-1" d="M174.87,102.38h-2.97v-1.03c0-.77-.66-1.43-1.43-1.43h-17.6c-.77,0-1.43,.66-1.43,1.43v5.9c0,.77,.66,1.39,1.43,1.39h17.6c2.46,0,4.4,1.98,4.4,4.4v5.9c0,2.46-1.94,4.4-4.4,4.4h-17.6c-2.46,0-4.4-1.94-4.4-4.4v-1.03h2.97v1.03c0,.77,.66,1.43,1.43,1.43h17.6c.77,0,1.43-.66,1.43-1.43v-5.9c0-.77-.66-1.39-1.43-1.39h-17.6c-2.46,0-4.4-1.98-4.4-4.4v-5.9c0-2.46,1.94-4.4,4.4-4.4h17.6c2.46,0,4.4,1.94,4.4,4.4v1.03Z"/><path class="cls-1" d="M211.56,96.95l-11.04,13.2,11.07,13.2h-3.85l-9.83-11.7h-8.51v11.7h-3.01v-26.4h3.01v11.7h8.51c3.19-3.81,6.64-7.88,9.83-11.7h3.81Z"/><path class="cls-1" d="M248.99,96.95l-12.14,16.46v9.94h-2.97v-9.94c-3.92-5.39-8.14-11.07-12.14-16.46h3.41l10.23,12.91c3.19-4.11,6.89-8.8,10.12-12.91h3.48Z"/><path class="cls-1" d="M260.35,96.91h2.97v23.46h23.43v2.97h-26.4v-26.43Z"/><path class="cls-1" d="M296.5,96.95h2.97v26.4h-2.97v-26.4Z"/><path class="cls-1" d="M335.55,96.95h2.97v26.4h-4.07l-19.36-23.02v23.02h-2.97v-26.4h4.07l19.36,23.03v-23.03Z"/><path class="cls-1" d="M374.37,99.92h-21.12v8.73h16.97v3.01h-16.97v8.73h21.12v2.97h-24.09v-26.4h24.09v2.97Z"/></g><g><path class="cls-1" d="M148.47,133.68h1.42v8.03h8.02v1.42h-9.44v-9.45Z"/><path class="cls-1" d="M169,133.69c.94,0,1.7,.76,1.7,1.7v6.03c0,.94-.76,1.7-1.7,1.7h-6.03c-.94,0-1.7-.76-1.7-1.7v-6.03c0-.94,.76-1.7,1.7-1.7h6.03Zm0,8.02c.16,0,.29-.13,.29-.29v-6.03c0-.16-.13-.29-.29-.29h-6.03c-.16,0-.29,.13-.29,.29v6.03c0,.16,.13,.29,.29,.29h6.03Z"/><path class="cls-1" d="M184.2,135.96h-1.42v-.56c0-.16-.13-.29-.29-.29h-6.03c-.16,0-.29,.13-.29,.29v6.03c0,.16,.13,.29,.29,.29h6.03c.16,0,.29-.13,.29-.29v-2.04h-2.23v-1.42h3.64v3.46c0,.94-.76,1.7-1.7,1.7h-6.03c-.94,0-1.7-.76-1.7-1.7v-6.03c0-.94,.76-1.7,1.7-1.7h6.03c.94,0,1.7,.76,1.7,1.7v.56Z"/><path class="cls-1" d="M188.28,133.69h1.42v9.44h-1.42v-9.44Z"/><path class="cls-1" d="M203.14,135.95h-1.42v-.55c0-.16-.13-.29-.29-.29h-6.03c-.16,0-.29,.13-.29,.29v2.02c0,.16,.13,.29,.29,.29h6.03c.94,0,1.7,.76,1.7,1.7v2.02c0,.94-.76,1.7-1.7,1.7h-6.03c-.94,0-1.7-.76-1.7-1.7v-.55h1.42v.55c0,.16,.13,.29,.29,.29h6.03c.16,0,.29-.13,.29-.29v-2.02c0-.16-.13-.29-.29-.29h-6.03c-.94,0-1.7-.76-1.7-1.7v-2.02c0-.94,.76-1.7,1.7-1.7h6.03c.94,0,1.7,.76,1.7,1.7v.55Z"/><path class="cls-1" d="M216.13,133.69v1.42h-4.01v8.02h-1.42v-8.02h-4.01v-1.42h9.44Z"/><path class="cls-1" d="M219.75,133.69h1.42v9.44h-1.42v-9.44Z"/><path class="cls-1" d="M226.95,135.11c-.16,0-.29,.13-.29,.29v6.03c0,.16,.13,.29,.29,.29h7.71v1.42h-7.71c-.94,0-1.7-.76-1.7-1.7v-6.03c0-.94,.76-1.7,1.7-1.7h7.71v1.42h-7.71Z"/><path class="cls-1" d="M248.01,135.95h-1.42v-.55c0-.16-.13-.29-.29-.29h-6.03c-.16,0-.29,.13-.29,.29v2.02c0,.16,.13,.29,.29,.29h6.03c.94,0,1.7,.76,1.7,1.7v2.02c0,.94-.76,1.7-1.7,1.7h-6.03c-.94,0-1.7-.76-1.7-1.7v-.55h1.42v.55c0,.16,.13,.29,.29,.29h6.03c.16,0,.29-.13,.29-.29v-2.02c0-.16-.13-.29-.29-.29h-6.03c-.94,0-1.7-.76-1.7-1.7v-2.02c0-.94,.76-1.7,1.7-1.7h6.03c.94,0,1.7,.76,1.7,1.7v.55Z"/></g></g></svg>