<svg id="Warstwa_1" xmlns="http://www.w3.org/2000/svg" viewBox="0 0 350 210"><defs><style>.cls-1{fill:#000;}</style></defs><polygon class="cls-1" points="172.32 54.91 201.55 84.15 174.89 110.81 170.46 106.38 192.33 84.51 155.65 47.83 175.11 28.37 201.77 55.03 194.5 62.3 197.08 64.87 206.92 55.03 175.11 23.22 143.3 55.03 171.18 82.91 173.75 80.34 148.45 55.03 153.08 50.4 187.19 84.51 167.89 103.81 148.23 84.15 155.63 76.75 153.06 74.18 143.08 84.15 174.89 115.96 206.7 84.15 174.89 52.34 172.32 54.91"/><g><path class="cls-1" d="M73.28,140.42h-3.49v-1.21c0-.9-.78-1.68-1.68-1.68h-20.68c-.9,0-1.68,.78-1.68,1.68v6.94c0,.91,.78,1.64,1.68,1.64h20.68c2.89,0,5.17,2.33,5.17,5.17v6.94c0,2.89-2.28,5.17-5.17,5.17h-20.68c-2.89,0-5.17-2.28-5.17-5.17v-1.21h3.49v1.21c0,.91,.78,1.68,1.68,1.68h20.68c.9,0,1.68-.78,1.68-1.68v-6.94c0-.91-.78-1.64-1.68-1.64h-20.68c-2.89,0-5.17-2.33-5.17-5.17v-6.94c0-2.89,2.28-5.17,5.17-5.17h20.68c2.89,0,5.17,2.28,5.17,5.17v1.21Z"/><path class="cls-1" d="M116.41,134.05l-12.97,15.51,13.01,15.51h-4.52l-11.55-13.75h-10v13.75h-3.53v-31.03h3.53v13.75h10c3.75-4.48,7.8-9.26,11.55-13.75h4.48Z"/><path class="cls-1" d="M160.4,134.05l-14.26,19.35v11.68h-3.49v-11.68c-4.61-6.33-9.57-13.01-14.26-19.35h4.01l12.02,15.17c3.75-4.83,8.1-10.34,11.89-15.17h4.09Z"/><path class="cls-1" d="M173.75,134h3.49v27.58h27.54v3.49h-31.03v-31.07Z"/><path class="cls-1" d="M216.23,134.05h3.49v31.03h-3.49v-31.03Z"/><path class="cls-1" d="M262.12,134.05h3.49v31.03h-4.78l-22.75-27.06v27.06h-3.49v-31.03h4.78l22.75,27.06v-27.06Z"/><path class="cls-1" d="M307.75,137.54h-24.82v10.26h19.95v3.53h-19.95v10.26h24.82v3.49h-28.31v-31.03h28.31v3.49Z"/></g><g><path class="cls-1" d="M125.23,177.32h1.42v8.03h8.02v1.42h-9.44v-9.45Z"/><path class="cls-1" d="M145.75,177.34c.94,0,1.7,.76,1.7,1.7v6.03c0,.94-.76,1.7-1.7,1.7h-6.03c-.94,0-1.7-.76-1.7-1.7v-6.03c0-.94,.76-1.7,1.7-1.7h6.03Zm0,8.02c.16,0,.29-.13,.29-.29v-6.03c0-.16-.13-.29-.29-.29h-6.03c-.16,0-.29,.13-.29,.29v6.03c0,.16,.13,.29,.29,.29h6.03Z"/><path class="cls-1" d="M160.96,179.61h-1.42v-.56c0-.16-.13-.29-.29-.29h-6.03c-.16,0-.29,.13-.29,.29v6.03c0,.16,.13,.29,.29,.29h6.03c.16,0,.29-.13,.29-.29v-2.04h-2.23v-1.42h3.64v3.46c0,.94-.76,1.7-1.7,1.7h-6.03c-.94,0-1.7-.76-1.7-1.7v-6.03c0-.94,.76-1.7,1.7-1.7h6.03c.94,0,1.7,.76,1.7,1.7v.56Z"/><path class="cls-1" d="M165.04,177.34h1.42v9.44h-1.42v-9.44Z"/><path class="cls-1" d="M179.9,179.59h-1.42v-.55c0-.16-.13-.29-.29-.29h-6.03c-.16,0-.29,.13-.29,.29v2.02c0,.16,.13,.29,.29,.29h6.03c.94,0,1.7,.76,1.7,1.7v2.02c0,.94-.76,1.7-1.7,1.7h-6.03c-.94,0-1.7-.76-1.7-1.7v-.55h1.42v.55c0,.16,.13,.29,.29,.29h6.03c.16,0,.29-.13,.29-.29v-2.02c0-.16-.13-.29-.29-.29h-6.03c-.94,0-1.7-.76-1.7-1.7v-2.02c0-.94,.76-1.7,1.7-1.7h6.03c.94,0,1.7,.76,1.7,1.7v.55Z"/><path class="cls-1" d="M192.89,177.34v1.42h-4.01v8.02h-1.42v-8.02h-4.01v-1.42h9.44Z"/><path class="cls-1" d="M196.51,177.34h1.42v9.44h-1.42v-9.44Z"/><path class="cls-1" d="M203.71,178.75c-.16,0-.29,.13-.29,.29v6.03c0,.16,.13,.29,.29,.29h7.71v1.42h-7.71c-.94,0-1.7-.76-1.7-1.7v-6.03c0-.94,.76-1.7,1.7-1.7h7.71v1.42h-7.71Z"/><path class="cls-1" d="M224.77,179.59h-1.42v-.55c0-.16-.13-.29-.29-.29h-6.03c-.16,0-.29,.13-.29,.29v2.02c0,.16,.13,.29,.29,.29h6.03c.94,0,1.7,.76,1.7,1.7v2.02c0,.94-.76,1.7-1.7,1.7h-6.03c-.94,0-1.7-.76-1.7-1.7v-.55h1.42v.55c0,.16,.13,.29,.29,.29h6.03c.16,0,.29-.13,.29-.29v-2.02c0-.16-.13-.29-.29-.29h-6.03c-.94,0-1.7-.76-1.7-1.7v-2.02c0-.94,.76-1.7,1.7-1.7h6.03c.94,0,1.7,.76,1.7,1.7v.55Z"/></g></svg>