
<svg id="Warstwa_1" xmlns="http://www.w3.org/2000/svg" xmlns:xlink="http://www.w3.org/1999/xlink" viewBox="0 0 350 210"><defs><style>.cls-1{fill:url(#Gradient_bez_nazwy_8-14);}.cls-2{fill:url(#Gradient_bez_nazwy_8-4);}.cls-3{fill:url(#Gradient_bez_nazwy_6);}.cls-4{fill:url(#Gradient_bez_nazwy_8-11);}.cls-5{fill:url(#Gradient_bez_nazwy_8-8);}.cls-6{fill:url(#Gradient_bez_nazwy_8-2);}.cls-7{fill:url(#Gradient_bez_nazwy_8-12);}.cls-8{fill:url(#Gradient_bez_nazwy_8-15);}.cls-9{fill:url(#Gradient_bez_nazwy_8-10);}.cls-10{fill:url(#Gradient_bez_nazwy_8-3);}.cls-11{fill:url(#Gradient_bez_nazwy_8-5);}.cls-12{fill:url(#Gradient_bez_nazwy_8-7);}.cls-13{fill:url(#Gradient_bez_nazwy_8);}.cls-14{fill:url(#Gradient_bez_nazwy_8-6);}.cls-15{fill:url(#Gradient_bez_nazwy_8-13);}.cls-16{fill:url(#Gradient_bez_nazwy_8-16);}.cls-17{fill:url(#Gradient_bez_nazwy_8-9);}</style><linearGradient id="Gradient_bez_nazwy_6" x1="173.62" y1="124.15" x2="176.68" y2="3.3" gradientUnits="userSpaceOnUse"><stop offset="0" stop-color="#977a50"/><stop offset="1" stop-color="#e3c481"/></linearGradient><linearGradient id="Gradient_bez_nazwy_8" x1="56.71" y1="238.46" x2="58.75" y2="65.87" gradientUnits="userSpaceOnUse"><stop offset="0" stop-color="#977a50"/><stop offset="1" stop-color="#e3c481"/></linearGradient><linearGradient id="Gradient_bez_nazwy_8-2" x1="100.59" y1="238.98" x2="102.63" y2="66.39" xlink:href="#Gradient_bez_nazwy_8"/><linearGradient id="Gradient_bez_nazwy_8-3" x1="143.14" y1="239.49" x2="145.18" y2="66.89" xlink:href="#Gradient_bez_nazwy_8"/><linearGradient id="Gradient_bez_nazwy_8-4" x1="188.19" y1="240.02" x2="190.23" y2="67.42" xlink:href="#Gradient_bez_nazwy_8"/><linearGradient id="Gradient_bez_nazwy_8-5" x1="216.9" y1="240.36" x2="218.95" y2="67.76" xlink:href="#Gradient_bez_nazwy_8"/><linearGradient id="Gradient_bez_nazwy_8-6" x1="249.02" y1="240.74" x2="251.06" y2="68.14" xlink:href="#Gradient_bez_nazwy_8"/><linearGradient id="Gradient_bez_nazwy_8-7" x1="292.51" y1="241.25" x2="294.55" y2="68.66" xlink:href="#Gradient_bez_nazwy_8"/><linearGradient id="Gradient_bez_nazwy_8-8" x1="129.27" y1="239.32" x2="131.31" y2="66.73" xlink:href="#Gradient_bez_nazwy_8"/><linearGradient id="Gradient_bez_nazwy_8-9" x1="142.06" y1="239.47" x2="144.1" y2="66.88" xlink:href="#Gradient_bez_nazwy_8"/><linearGradient id="Gradient_bez_nazwy_8-10" x1="155.56" y1="239.63" x2="157.6" y2="67.04" xlink:href="#Gradient_bez_nazwy_8"/><linearGradient id="Gradient_bez_nazwy_8-11" x1="165.06" y1="239.75" x2="167.11" y2="67.15" xlink:href="#Gradient_bez_nazwy_8"/><linearGradient id="Gradient_bez_nazwy_8-12" x1="174.5" y1="239.86" x2="176.54" y2="67.26" xlink:href="#Gradient_bez_nazwy_8"/><linearGradient id="Gradient_bez_nazwy_8-13" x1="187.44" y1="240.01" x2="189.48" y2="67.42" xlink:href="#Gradient_bez_nazwy_8"/><linearGradient id="Gradient_bez_nazwy_8-14" x1="196.53" y1="240.12" x2="198.57" y2="67.52" xlink:href="#Gradient_bez_nazwy_8"/><linearGradient id="Gradient_bez_nazwy_8-15" x1="206.03" y1="240.23" x2="208.07" y2="67.64" xlink:href="#Gradient_bez_nazwy_8"/><linearGradient id="Gradient_bez_nazwy_8-16" x1="219.36" y1="240.39" x2="221.41" y2="67.79" xlink:href="#Gradient_bez_nazwy_8"/></defs><polygon class="cls-3" points="172.32 54.91 201.55 84.15 174.89 110.81 170.46 106.38 192.33 84.51 155.65 47.83 175.11 28.37 201.77 55.03 194.5 62.3 197.08 64.87 206.92 55.03 175.11 23.22 143.3 55.03 171.18 82.91 173.75 80.34 148.45 55.03 153.08 50.4 187.19 84.51 167.89 103.81 148.23 84.15 155.63 76.75 153.06 74.18 143.08 84.15 174.89 115.96 206.7 84.15 174.89 52.34 172.32 54.91"/><g><path class="cls-13" d="M73.28,140.42h-3.49v-1.21c0-.9-.78-1.68-1.68-1.68h-20.68c-.9,0-1.68,.78-1.68,1.68v6.94c0,.91,.78,1.64,1.68,1.64h20.68c2.89,0,5.17,2.33,5.17,5.17v6.94c0,2.89-2.28,5.17-5.17,5.17h-20.68c-2.89,0-5.17-2.28-5.17-5.17v-1.21h3.49v1.21c0,.91,.78,1.68,1.68,1.68h20.68c.9,0,1.68-.78,1.68-1.68v-6.94c0-.91-.78-1.64-1.68-1.64h-20.68c-2.89,0-5.17-2.33-5.17-5.17v-6.94c0-2.89,2.28-5.17,5.17-5.17h20.68c2.89,0,5.17,2.28,5.17,5.17v1.21Z"/><path class="cls-6" d="M116.41,134.05l-12.97,15.51,13.01,15.51h-4.52l-11.55-13.75h-10v13.75h-3.53v-31.03h3.53v13.75h10c3.75-4.48,7.8-9.26,11.55-13.75h4.48Z"/><path class="cls-10" d="M160.4,134.05l-14.26,19.35v11.68h-3.49v-11.68c-4.61-6.33-9.57-13.01-14.26-19.35h4.01l12.02,15.17c3.75-4.83,8.1-10.34,11.89-15.17h4.09Z"/><path class="cls-2" d="M173.75,134h3.49v27.58h27.54v3.49h-31.03v-31.07Z"/><path class="cls-11" d="M216.23,134.05h3.49v31.03h-3.49v-31.03Z"/><path class="cls-14" d="M262.12,134.05h3.49v31.03h-4.78l-22.75-27.06v27.06h-3.49v-31.03h4.78l22.75,27.06v-27.06Z"/><path class="cls-12" d="M307.75,137.54h-24.82v10.26h19.95v3.53h-19.95v10.26h24.82v3.49h-28.31v-31.03h28.31v3.49Z"/></g><g><path class="cls-5" d="M125.23,177.32h1.42v8.03h8.02v1.42h-9.44v-9.45Z"/><path class="cls-17" d="M145.75,177.34c.94,0,1.7,.76,1.7,1.7v6.03c0,.94-.76,1.7-1.7,1.7h-6.03c-.94,0-1.7-.76-1.7-1.7v-6.03c0-.94,.76-1.7,1.7-1.7h6.03Zm0,8.02c.16,0,.29-.13,.29-.29v-6.03c0-.16-.13-.29-.29-.29h-6.03c-.16,0-.29,.13-.29,.29v6.03c0,.16,.13,.29,.29,.29h6.03Z"/><path class="cls-9" d="M160.96,179.61h-1.42v-.56c0-.16-.13-.29-.29-.29h-6.03c-.16,0-.29,.13-.29,.29v6.03c0,.16,.13,.29,.29,.29h6.03c.16,0,.29-.13,.29-.29v-2.04h-2.23v-1.42h3.64v3.46c0,.94-.76,1.7-1.7,1.7h-6.03c-.94,0-1.7-.76-1.7-1.7v-6.03c0-.94,.76-1.7,1.7-1.7h6.03c.94,0,1.7,.76,1.7,1.7v.56Z"/><path class="cls-4" d="M165.04,177.34h1.42v9.44h-1.42v-9.44Z"/><path class="cls-7" d="M179.9,179.59h-1.42v-.55c0-.16-.13-.29-.29-.29h-6.03c-.16,0-.29,.13-.29,.29v2.02c0,.16,.13,.29,.29,.29h6.03c.94,0,1.7,.76,1.7,1.7v2.02c0,.94-.76,1.7-1.7,1.7h-6.03c-.94,0-1.7-.76-1.7-1.7v-.55h1.42v.55c0,.16,.13,.29,.29,.29h6.03c.16,0,.29-.13,.29-.29v-2.02c0-.16-.13-.29-.29-.29h-6.03c-.94,0-1.7-.76-1.7-1.7v-2.02c0-.94,.76-1.7,1.7-1.7h6.03c.94,0,1.7,.76,1.7,1.7v.55Z"/><path class="cls-15" d="M192.89,177.34v1.42h-4.01v8.02h-1.42v-8.02h-4.01v-1.42h9.44Z"/><path class="cls-1" d="M196.51,177.34h1.42v9.44h-1.42v-9.44Z"/><path class="cls-8" d="M203.71,178.75c-.16,0-.29,.13-.29,.29v6.03c0,.16,.13,.29,.29,.29h7.71v1.42h-7.71c-.94,0-1.7-.76-1.7-1.7v-6.03c0-.94,.76-1.7,1.7-1.7h7.71v1.42h-7.71Z"/><path class="cls-16" d="M224.77,179.59h-1.42v-.55c0-.16-.13-.29-.29-.29h-6.03c-.16,0-.29,.13-.29,.29v2.02c0,.16,.13,.29,.29,.29h6.03c.94,0,1.7,.76,1.7,1.7v2.02c0,.94-.76,1.7-1.7,1.7h-6.03c-.94,0-1.7-.76-1.7-1.7v-.55h1.42v.55c0,.16,.13,.29,.29,.29h6.03c.16,0,.29-.13,.29-.29v-2.02c0-.16-.13-.29-.29-.29h-6.03c-.94,0-1.7-.76-1.7-1.7v-2.02c0-.94,.76-1.7,1.7-1.7h6.03c.94,0,1.7,.76,1.7,1.7v.55Z"/></g></svg>